<svg xmlns="http://www.w3.org/2000/svg" xmlns:xlink="http://www.w3.org/1999/xlink" viewBox="0 0 400 400"><defs><path id="reuse-0" fill="#01554B" d="M143 15l79 79c13 13 13 36 0 49l-79 79a35 35 0 01-49 0l-79-79a35 35 0 010-49l79-79c13-13 36-13 49 0zm-8 12c-9-9-24-9-33 0l-75 75c-9 9-9 24 0 33l75 75c9 9 24 9 33 0l75-75c9-9 9-24 0-33z"/></defs><defs><circle id="a" cx="292" cy="292" r="191"/></defs><g fill="none" fill-rule="evenodd"><circle cx="200" cy="200" r="191" fill="#77A904"/><g transform="translate(-92 -92)"><mask id="b" fill="#fff"><use xlink:href="#a"/></mask><use fill="#77A904" xlink:href="#a"/><g mask="url(#b)"><rect width="166" height="166" x="35" y="35" fill="#D6C9B8" rx="35" transform="rotate(45 118 118)"/><use xlink:href="#reuse-0"/></g><g mask="url(#b)"><g transform="translate(348 348)"><rect width="166" height="166" x="35" y="35" fill="#D6C9B8" rx="35" transform="rotate(45 118 118)"/><use xlink:href="#reuse-0"/></g></g><g mask="url(#b)"><g transform="translate(0 348)"><rect width="166" height="166" x="35" y="35" fill="#D6C9B8" rx="35" transform="rotate(45 118 118)"/><use xlink:href="#reuse-0"/></g></g><g mask="url(#b)"><g transform="translate(348)"><rect width="166" height="166" x="35" y="35" fill="#D6C9B8" rx="35" transform="rotate(45 118 118)"/><use xlink:href="#reuse-0"/></g></g></g><circle cx="199.5" cy="201.5" r="143.5" fill="#47821C"/><path fill="#01554B" d="M200 49a152 152 0 110 304 152 152 0 010-304zm0 17a135 135 0 100 270 135 135 0 000-270z"/><path fill="#A78A66" d="M200 9c17 0 33 2 48 6v83c0 30 25 55 55 55h82a191 191 0 010 95h-82c-30 0-55 25-55 55v82a191 191 0 01-96 0v-82c0-30-25-55-55-55H15a191 191 0 010-95h82c30 0 55-25 55-55V15c15-4 31-6 48-6z"/><path fill="#01554B" d="M95 241c36 0 65 29 65 65v81l-16-4v-80c0-25-19-45-44-45H18l-5-17h82zm292 0l-5 16h-80c-24 0-44 20-45 44v81l-17 5v-81c0-36 29-65 65-65zM160 13v83c0 36-29 65-65 65H13l4-16h81c25 0 45-19 45-44V18l17-5zm80 0l16 4v82c0 25 20 45 44 45h83l4 17h-82c-36 0-65-29-65-65z"/><path fill="#01554B" d="M200 0a200 200 0 110 400 200 200 0 010-400zm0 18a182 182 0 100 364 182 182 0 000-364z"/><circle cx="200" cy="200" r="64" fill="#D6C9B8"/><path fill="#01554B" d="M200 128a72 72 0 110 144 72 72 0 010-144zm0 16a56 56 0 100 112 56 56 0 000-112z"/><circle cx="200" cy="201" r="40" fill="#01554B"/><circle cx="200.5" cy="200.5" r="23.5" fill="#C81C23"/><path fill="#D6C9B8" d="M185 290c4 0 8 4 8 8v16a8 8 0 11-16 0v-16c0-4 4-8 8-8zm31 0c4 0 8 4 8 8v16a8 8 0 11-16 0v-16c0-4 4-8 8-8zm96-82a8 8 0 110 16h-16a8 8 0 110-16h16zm-207 0a8 8 0 110 16H89a8 8 0 110-16h16zm207-31a8 8 0 110 16h-16a8 8 0 110-16h16zm-207 0a8 8 0 110 16H89a8 8 0 110-16h16zm80-97c4 0 8 4 8 8v16a8 8 0 11-16 0V88c0-4 4-8 8-8zm31 0c4 0 8 4 8 8v16a8 8 0 11-16 0V88c0-4 4-8 8-8z"/></g></svg>
