<svg xmlns="http://www.w3.org/2000/svg" viewBox="0 0 34 34"><defs/><path fill="#000" fill-rule="evenodd" d="M1 17.3c0 7.2 4.7 13.3 11.1 15.4.9.2 1.2-.3 1.2-.7v-2.8c-4.6 1-5.6-2.2-5.6-2.2C7 25.1 6 24.6 6 24.6c-1.4-1 .1-1 .1-1 1.7.1 2.5 1.7 2.5 1.7 1.5 2.5 3.9 1.8 4.8 1.4.1-1 .6-1.8 1-2.2-3.6-.4-7.4-1.8-7.4-8 0-1.8.6-3.3 1.7-4.4-.2-.4-.8-2.1.1-4.3 0 0 1.4-.5 4.5 1.6a15.6 15.6 0 018.2 0c3-2 4.4-1.6 4.4-1.6 1 2.2.4 3.9.2 4.3 1 1.1 1.7 2.6 1.7 4.3 0 6.3-3.8 7.7-7.5 8 .6.6 1.1 1.6 1.1 3V32c0 .4.3.9 1.1.7A16.3 16.3 0 101 17.3z"/></svg>
